# xmcd
#
# Track frame offsets: 
#        150
#        19227
#        38515
#        62917
#        78465
#
# Disc length: 1265 seconds
#
# Revision: 0
# Processed by: cddbd v1.5.2PL0 Copyright (c) Steve Scherf et al.
# Submitted via: ExactAudioCopy v0.95b4
#
DISCID=3604ef05
DTITLE=Mardi Gras.BB - Supersmell (Parts of)
DYEAR=2000
DGENRE=R&B
TTITLE0=Psychoflute - Superflute
TTITLE1=Tijuana 65 - Shalala
TTITLE2=Dreamtime In Memphis
TTITLE3=Erotic City
TTITLE4=Let It Shine
EXTD=
EXTT0=
EXTT1=
EXTT2=
EXTT3=
EXTT4=
PLAYORDER=
